HIERARCHY
ROOT Hips
{
  OFFSET 1.44925e-005 102.336 -0.101585
  CHANNELS 6 Xposition Yposition Zposition Zrotation Xrotation Yrotation
  JOINT LeftUpLeg
  {
    OFFSET 8.9458 -8.66707 0.101652
    CHANNELS 3 Zrotation Xrotation Yrotation
    JOINT LeftLeg
    {
      OFFSET 0 -44.4227 1.3727
      CHANNELS 3 Zrotation Xrotation Yrotation
      JOINT LeftFoot
      {
        OFFSET -0.253549 -42.0924 -1.46059
        CHANNELS 3 Zrotation Xrotation Yrotation
        JOINT LeftToes
        {
          OFFSET -0.04 -4.41509 8.4991
          CHANNELS 3 Zrotation Xrotation Yrotation
          End Site
          {
            OFFSET 0.08 -0.047448 9.77979
          }
        }
      }
    }
  }
  JOINT Spine
  {
    OFFSET 0 11.8905 0
    CHANNELS 3 Zrotation Xrotation Yrotation
    JOINT Spine1
    {
      OFFSET 0 25.6574 0.127663
      CHANNELS 3 Zrotation Xrotation Yrotation
      JOINT RightShoulder
      {
        OFFSET -8.99 -0.362252 -0.22
        CHANNELS 3 Zrotation Xrotation Yrotation
        JOINT RightArm
        {
          OFFSET -10.2827 -0.00338 0.322123
          CHANNELS 3 Zrotation Xrotation Yrotation
          JOINT RightForeArm
          {
            OFFSET -26.364 0.099144 -1.42434
            CHANNELS 3 Zrotation Xrotation Yrotation
            JOINT RightHand
            {
              OFFSET -22.0324 0.085362 1.02216
              CHANNELS 3 Zrotation Xrotation Yrotation
              End Site
              {
                OFFSET -13.3284 -0.6 1.50291
              }
            }
          }
        }
      }
      JOINT LeftShoulder1
      {
        OFFSET 8.99 -0.362252 -0.22
        CHANNELS 3 Zrotation Xrotation Yrotation
        JOINT LeftArm
        {
          OFFSET 10.2827 -0.00337999 0.322123
          CHANNELS 3 Zrotation Xrotation Yrotation
          JOINT LeftForeArm
          {
            OFFSET 26.2597 0.099144 -1.42434
            CHANNELS 3 Zrotation Xrotation Yrotation
            JOINT LeftHand
            {
              OFFSET 22.0902 0.085362 1.02216
              CHANNELS 3 Zrotation Xrotation Yrotation
              End Site
              {
                OFFSET 13.419 -0.6 1.50291
              }
            }
          }
        }
      }
      JOINT Head
      {
        OFFSET 0 8.73416 0.011341
        CHANNELS 3 Zrotation Xrotation Yrotation
        End Site
        {
          OFFSET -0.29 12.7742 2.51395
        }
      }
    }
  }
  JOINT RightUpLeg
  {
    OFFSET -8.9458 -8.66707 0.101652
    CHANNELS 3 Zrotation Xrotation Yrotation
    JOINT RightLeg
    {
      OFFSET 0 -44.4227 1.3727
      CHANNELS 3 Zrotation Xrotation Yrotation
      JOINT RightFoot
      {
        OFFSET 0.253549 -42.0924 -1.46059
        CHANNELS 3 Zrotation Xrotation Yrotation
        JOINT RightToes
        {
          OFFSET 0.04 -4.41509 8.4991
          CHANNELS 3 Zrotation Xrotation Yrotation
          End Site
          {
            OFFSET -0.08 -0.137448 9.77979
          }
        }
      }
    }
  }
}
MOTION
Frames:	10
Frame Time:	0.0333333
25.0175 87.6976 -0.487051 -6.34923 8.38479 -98.221 6.90424 -14.1347 -1.27341 15.0872 86.3902 5.29974 -7.7533 -22.2137 -0.896329 -1.33288e-009 8.75229e-006 -1.47472e-008 12.286 22.967 -4.33852 3.84345 0.963309 -1.73345 39.6744 1.79648 -0.0657132 35.5426 -3.70635 10.4575 3.19505 20.8657 32.9958 -18.0327 8.94682 0.953863 -46.8931 3.80817 -3.56952 -32.106 -12.4441 -7.79823 8.38039 30.3651 -50.0711 5.82328 9.61819 -0.917488 2.02124 -26.4354 3.44045 13.038 -23.4165 -0.931545 -2.047 61.26 -18.2067 4.99978 -34.0548 0.864377 0.0462048 0.000530889 0.662642 
21.8022 88.2606 -0.717224 -6.00321 8.40232 -99.9587 6.74954 -19.0787 -1.454 14.0148 86.1193 6.33634 -8.0046 -23.0141 -0.9838 -1.33288e-009 8.75229e-006 -1.47472e-008 14.0675 22.9088 -3.51398 0.93699 0.367865 -0.100514 38.8852 1.78546 -0.0267972 38.5193 -2.72524 19.6163 2.05311 22.4426 36.6532 -16.858 8.95781 1.3448 -47.4593 3.83625 -3.53819 -30.0087 -9.74855 -1.65453 2.33219 27.1054 -38.5025 5.82328 9.61819 -0.917488 0.957781 -25.291 1.98408 13.1239 -20.7358 0.00938878 -1.93545 60.3579 -17.2934 5.11546 -34.9759 0.934878 0.0462048 0.000530889 0.662642 
18.3673 89.8159 -1.04151 -5.93322 7.78094 -100.775 6.27862 -23.0358 -1.39171 7.89263 83.1324 12.6972 -8.65032 -23.4404 -1.10509 -1.33288e-009 8.75229e-006 -1.47472e-008 14.3844 22.3385 -2.46407 -1.11534 0.296379 1.20285 37.9544 1.76692 0.00784502 40.5942 -1.94094 27.3735 -0.16747 24.6525 42.1266 -15.8724 9.0176 1.3327 -47.5386 3.81945 -3.49585 -28.6896 -6.03376 4.93406 0.00262351 25.0109 -31.7286 5.82328 9.61819 -0.917488 0.30303 -24.3948 0.550278 11.9523 -16.3834 -0.0398708 -1.66404 56.5228 -16.3342 5.22693 -35.6136 0.991934 0.0462048 0.000530889 0.662642 
14.6672 92.1412 -1.42262 -5.66 6.25222 -100.712 4.95355 -26.0984 -1.2283 4.42105 77.4214 17.2109 -9.59202 -23.4359 -1.23945 -1.33288e-009 8.75229e-006 -1.47472e-008 13.2877 21.0248 -1.27616 -2.61497 0.0998305 2.13591 37.0663 1.73986 0.0201853 42.5195 -2.15469 32.8571 -2.6754 26.2807 48.5791 -14.9463 9.11764 0.958655 -47.3583 3.77335 -3.43742 -28.0083 -2.13118 12.1569 -0.783055 24.057 -28.5222 5.82328 9.61819 -0.917488 0.0273828 -23.1241 -0.850972 9.61211 -11.2148 -0.799683 -1.37297 50.0895 -15.4114 5.50611 -34.9081 1.03147 0.0462048 0.000530889 0.662642 
10.7662 94.9052 -1.73566 -5.02543 4.2444 -100.478 3.23615 -28.1322 -0.517523 2.90944 69.5562 20.0598 -10.3096 -23.1417 -1.31623 -1.33288e-009 8.75229e-006 -1.47472e-008 11.7564 19.5025 0.0624007 -4.30579 -0.758786 3.11269 36.1256 1.69927 0.00506391 44.8867 -3.27477 35.6755 -3.55724 26.2296 54.8155 -14.0623 9.20672 0.608008 -47.1699 3.71788 -3.36239 -27.7734 1.62645 19.4838 -1.40571 23.1074 -27.0953 5.82328 9.61819 -0.917488 -0.249882 -21.4548 -2.49756 6.72302 -6.14934 -1.84331 -1.13181 42.5885 -13.9718 5.61298 -31.678 0.903976 0.0462048 0.000530889 0.662642 
6.79604 97.7595 -1.92947 -4.46118 2.42234 -100.43 1.82611 -28.6664 0.929597 2.12342 60.4189 21.1753 -10.7223 -22.8244 -1.34466 -1.33288e-009 8.75229e-006 -1.47472e-008 10.5306 18.1043 1.38409 -6.26052 -1.352 4.25593 35.3148 1.6558 -0.0293802 47.0319 -4.50442 36.9753 -2.64481 25.2189 60.15 -13.8789 9.24999 0.307626 -46.9084 3.64721 -3.26885 -27.845 4.44136 25.9274 -1.86583 22.3408 -26.3164 5.82328 9.61819 -0.917488 -0.577387 -20.1952 -4.26755 3.85051 -1.46161 -3.19908 -0.922727 35.6344 -11.642 6.28524 -26.2024 0.755256 0.0462048 0.000530889 0.662642 
2.80469 100.372 -2.02957 -4.15597 1.20936 -100.413 0.884294 -27.581 2.56815 1.61084 50.7105 20.944 -11.2994 -22.5339 -1.39529 -1.33288e-009 8.75229e-006 -1.47472e-008 9.77784 16.4277 2.40704 -8.02431 -0.717204 5.27532 34.736 1.62453 -0.0557083 48.3701 -5.11098 38.0612 -2.15321 24.6662 64.6733 -14.2028 9.26956 -0.00626679 -46.4678 3.56309 -3.17418 -27.8935 5.36238 31.2068 -1.93947 22.2018 -25.923 5.82328 9.61819 -0.917488 -0.835354 -19.4086 -5.63404 1.46117 2.71032 -5.06765 -0.731822 30.0139 -8.90767 7.94621 -19.4959 0.587638 0.0462048 0.000530889 0.662642 
-1.22707 102.453 -2.0495 -3.82655 0.595278 -100.193 0.119563 -25.5215 3.59393 1.31567 40.9748 21.0281 -11.7728 -22.0242 -1.40729 -1.33288e-009 8.75229e-006 -1.47472e-008 9.20856 14.274 3.01724 -9.04434 0.496926 5.85013 34.1059 1.59893 -0.0645355 49.0388 -4.80946 39.0498 -3.18743 24.7924 68.3738 -13.9298 9.31312 -0.281631 -45.9412 3.48758 -3.10575 -27.7114 4.33456 36.1005 -1.91622 22.2501 -26.1339 5.82328 9.61819 -0.917488 -0.996267 -18.1627 -6.21997 -0.211049 5.97754 -7.19699 -0.478241 26.0465 -6.80234 9.43173 -12.5889 0.213107 0.0462048 0.000530889 0.662642 
-5.28217 103.759 -1.99919 -3.4527 0.267671 -99.6962 -0.736538 -23.2801 3.9501 1.24325 32.1667 22.342 -11.3819 -21.4222 -1.29663 -1.33288e-009 8.75229e-006 -1.47472e-008 8.41838 12.3054 3.29378 -9.10466 1.07003 5.91333 33.3473 1.57138 -0.0674998 49.2055 -3.8792 39.3882 -4.51857 24.9684 71.3141 -12.9005 9.37851 -0.469774 -45.5039 3.43647 -3.06961 -27.2054 2.43803 41.05 -2.0873 22.0168 -27.1299 5.82328 9.61819 -0.917488 -1.0316 -16.2232 -6.25087 -1.30722 8.12888 -8.82416 -0.249424 24.338 -5.95226 9.84758 -6.78438 -0.238592 0.0462048 0.000530889 0.662642 
-9.26325 104.111 -1.90014 -3.41391 0.101225 -99.0657 -1.56213 -21.114 4.34608 1.17308 25.617 23.8735 -10.5467 -21.4671 -1.19582 -1.33288e-009 8.75229e-006 -1.47472e-008 7.60974 11.2137 3.3831 -8.82725 1.12584 5.79487 32.842 1.5559 -0.0623631 48.7581 -2.97305 38.9746 -4.93417 24.8466 73.6768 -12.1137 9.42515 -0.603501 -45.2287 3.40706 -3.05166 -26.531 1.02004 44.9537 -2.3209 21.7208 -28.3993 5.82328 9.61819 -0.917488 -0.89354 -14.6718 -6.34746 -1.9461 9.32469 -9.23554 -0.434368 25.5429 -6.17091 10.1073 -3.44602 -0.518905 0.0462048 0.000530889 0.662642 
